<?xml version="1.0" encoding="utf-8"?>
<!-- Generator: Adobe Illustrator 27.3.1, SVG Export Plug-In . SVG Version: 6.00 Build 0)  -->
<svg version="1.1" id="Layer_1" xmlns="http://www.w3.org/2000/svg" xmlns:xlink="http://www.w3.org/1999/xlink" x="0px" y="0px"
	 viewBox="0 0 2796.3 576" style="enable-background:new 0 0 2796.3 576;" xml:space="preserve">
<style type="text/css">
	.st0{opacity:0.5;fill:#E4E1E6;enable-background:new    ;}
	.st1{opacity:0.5;fill:#725AC1;enable-background:new    ;}
	.st2{opacity:0.5;fill:#C5C2E3;enable-background:new    ;}
	.st3{opacity:0.5;fill:#B9B4D8;enable-background:new    ;}
	.st4{opacity:0.75;fill:#9584D1;enable-background:new    ;}
	.st5{opacity:0.8;fill:#8E7BCD;enable-background:new    ;}
	.st6{opacity:0.8;fill:#826CC6;enable-background:new    ;}
	.st7{opacity:0.8;fill:#725AC1;enable-background:new    ;}
	.st8{opacity:0.51;fill:#242038;enable-background:new    ;}
	.st9{font-family:'Futura-Medium';}
	.st10{font-size:328.2261px;}
	.st11{fill:#CAC4CE;}
	.st12{font-size:135.8165px;}
</style>
<g id="Layer_1_00000012461195315462567550000002222153664700255137_">
</g>
<g id="Layer_3">
</g>
<g>
	<path class="st0" d="M510.3,504.4c-10.1,5.8-160.3,88.9-315.2,8.2C56.9,440.6,28.4,297.3,25.3,280c10-5.1,52.8-25.9,112.9-33.8
		c9.1,47.6,30,102.2,73.9,151.8c111,125.2,271.7,108.4,295.1,105.2c0.3,0,0.6,0,0.9,0c0.7,0,1.3,0,2,0
		C510.1,503.7,510.2,504.1,510.3,504.4z"/>
	<path class="st1" d="M510,503.3c-0.7,0-1.3,0-2,0c-0.3,0-0.6,0-0.9,0c1-0.1,1.8-0.3,2.2-0.3c0-0.4,0.1-0.8,0.2-1.4
		C509.7,502.2,509.9,502.8,510,503.3z"/>
	<path class="st2" d="M320.1,272.7c-3.1-1.4-6.2-2.8-9.4-4.1c-63.4-26.4-123.7-28.7-172.5-22.4c-12.4-64.4-3.5-116.1-1.6-126.1
		c14.3-1.5,87.8-8,168.9,25.4C303.6,185.5,308.6,230.2,320.1,272.7z"/>
	<path class="st3" d="M507.2,503.3c-23.4,3.2-184.1,20-295.1-105.2c-44-49.6-64.8-104.1-73.9-151.8c48.8-6.4,109.1-4.1,172.5,22.4
		c3.2,1.3,6.3,2.7,9.4,4.1c3.2,11.9,6.9,23.6,11.1,35C342.1,337.6,402.4,501.7,507.2,503.3z"/>
	<path class="st1" d="M510.3,495c-1-11.5-2.2-32.9,0-60.1C512.5,462.1,511.3,483.5,510.3,495z"/>
	<path class="st0" d="M995.2,280c-3.1,17.3-31.7,160.6-169.8,232.5c-154.9,80.7-305.1-2.4-315.2-8.2c0.1-0.3,0.2-0.7,0.3-1.1
		c0.8,0,1.6,0,2.3-0.1c0,0,0,0,0,0c21.4,3,183.7,21,295.5-105.2c44-49.6,64.8-104.1,73.9-151.8C942.4,254.1,985.2,275,995.2,280z"/>
	<path class="st1" d="M512.8,503.2c-0.8,0-1.5,0.1-2.3,0.1c0.1-0.5,0.3-1.1,0.4-1.7c0.1,0.5,0.1,1,0.2,1.4
		C511.5,503,512.1,503.1,512.8,503.2z"/>
	<path class="st2" d="M882.3,246.3c-48.8-6.4-109.1-4.1-172.5,22.4c-4.2,1.8-8.4,3.6-12.4,5.5c11.9-40.8,19-86.8,17.9-128.6
		c81-33.2,154.4-26.8,168.7-25.3C885.8,130.1,894.7,181.9,882.3,246.3z"/>
	<path class="st1" d="M510.3,495c-1-11.5-2.2-32.9,0-60.1C512.5,462.1,511.3,483.5,510.3,495z"/>
	<path class="st3" d="M882.3,246.3c-9.2,47.6-30,102.2-73.9,151.8C696.6,524.2,534.3,506.3,512.9,503.2
		c106.7-4.4,167.3-178,177.8-207.9c2.4-6.9,4.7-13.9,6.8-21.2c4-1.9,8.2-3.7,12.4-5.5C773.2,242.2,833.5,239.9,882.3,246.3z"/>
	<path class="st4" d="M509.6,501.6c-0.1,0.5-0.1,1-0.2,1.4c-0.5,0.1-1.2,0.2-2.2,0.3c-104.7-1.6-165-165.7-176-195.6
		c-4.2-11.4-7.9-23.1-11.1-35C461.5,336.9,502.9,475.9,509.6,501.6z"/>
	<path class="st4" d="M697.4,274.1c-2.1,7.2-4.4,14.3-6.8,21.2c-10.5,30-71.1,203.5-177.8,207.9c0,0,0,0,0,0
		c-0.8-0.1-1.3-0.2-1.7-0.3c0-0.4-0.1-0.8-0.2-1.4C517.5,476.1,558.4,338.9,697.4,274.1z"/>
	<path class="st5" d="M715.3,145.5c-33.9,13.9-69.2,34.8-102,66c-76.6,72.9-98.2,162.6-103.1,223.4
		c-4.9-60.8-26.4-150.5-103.1-223.4c-32.7-31.1-67.9-52-101.7-65.9c2.5-54.8,17.9-100.5,47-119.4c22.8-14.7,46.9-16.5,46.9-16.5
		c30.9-2.6,45.6,11.8,94.4,17.3c11,1.2,21.8,2.5,36.6,1.7c50.3-2.5,67.1-23.5,100.4-18.3c20.5,3.2,34.4,14.3,42.8,21
		C701.8,54.1,714,97,715.3,145.5z"/>
	<path class="st6" d="M510.3,495c-0.2,2.8-0.5,5-0.7,6.6c-6.7-25.7-48.1-164.7-189.5-228.9c-11.4-42.6-16.4-87.2-14.6-127.1
		c33.9,13.9,69,34.8,101.7,65.9c76.6,72.9,98.2,162.6,103.1,223.4C508.1,462.1,509.2,483.5,510.3,495z"/>
	<path class="st6" d="M697.4,274.1c-139,64.8-179.9,201.9-186.5,227.5c-0.2-1.6-0.4-3.8-0.7-6.6c1-11.5,2.2-32.9,0-60.1
		c4.9-60.8,26.4-150.5,103.1-223.4c32.8-31.2,68-52.1,102-66C716.4,187.3,709.3,233.3,697.4,274.1z"/>
	<path class="st4" d="M510.3,495c-1-11.5-2.2-32.9,0-60.1C512.5,462.1,511.3,483.5,510.3,495z"/>
	<path class="st7" d="M512.8,503.2c-0.8,0-1.5,0.1-2.3,0.1c-0.2,0-0.3,0-0.5,0c-0.7,0-1.3,0-2,0c-0.3,0-0.6,0-0.9,0
		c1-0.1,1.8-0.3,2.2-0.3c0-0.4,0.1-0.8,0.2-1.4c0.2-1.6,0.4-3.8,0.7-6.6c0.2,2.8,0.5,5,0.7,6.6c0.1,0.5,0.1,1,0.2,1.4
		C511.5,503,512.1,503.1,512.8,503.2z"/>
</g>
<text transform="matrix(1 0 0 1 1016.2078 326.0195)" class="st8 st9 st10">MONDENT</text>
<text transform="matrix(1 0 0 1 1281.0369 498.2607)" class="st11 st9 st12">DENTAL PRACTICE</text>
</svg>
