<?xml version="1.0" encoding="utf-8"?>
<!-- Generator: Adobe Illustrator 27.3.1, SVG Export Plug-In . SVG Version: 6.00 Build 0)  -->
<svg version="1.1" xmlns="http://www.w3.org/2000/svg" xmlns:xlink="http://www.w3.org/1999/xlink" x="0px" y="0px"
	 viewBox="0 0 1134.87 868.12" style="enable-background:new 0 0 1134.87 868.12;" xml:space="preserve">
<style type="text/css">
	.st0{opacity:0.5;fill:#E4E1E6;}
	.st1{opacity:0.5;fill:#725AC1;}
	.st2{opacity:0.5;fill:#C5C2E3;}
	.st3{opacity:0.5;fill:#B9B4D8;}
	.st4{opacity:0.75;fill:#9584D1;}
	.st5{opacity:0.8;fill:#8E7BCD;}
	.st6{opacity:0.8;fill:#826CC6;}
	.st7{opacity:0.8;fill:#725AC1;}
	.st8{opacity:0.51;fill:#242038;}
	.st9{font-family:'Futura-Medium';}
	.st10{font-size:211.2831px;}
	.st11{fill:#CAC4CE;}
	.st12{font-size:84.8096px;}
</style>
<g id="Layer_1">
</g>
<g id="Layer_3">
</g>
<g id="Layer_2">
	<path class="st0" d="M540.81,504.4c-10.1,5.82-160.32,88.88-315.18,8.21C87.49,440.63,58.99,297.38,55.84,280.07
		c10-5.07,52.79-25.95,112.88-33.76c9.14,47.64,29.96,102.21,73.92,151.79c111,125.21,271.71,108.45,295.07,105.24
		c0.28,0.01,0.58,0.01,0.87,0.01c0.67,0,1.32,0,1.97-0.02C540.65,503.74,540.73,504.09,540.81,504.4z"/>
	<path class="st1" d="M540.55,503.33c-0.65,0.02-1.3,0.02-1.97,0.02c-0.29,0-0.59,0-0.87-0.01c1.01-0.15,1.77-0.26,2.25-0.34
		c0.05-0.38,0.1-0.83,0.16-1.35C540.28,502.27,540.42,502.84,540.55,503.33z"/>
	<path class="st2" d="M350.61,272.75c-3.08-1.39-6.2-2.75-9.38-4.08c-63.37-26.44-123.66-28.73-172.51-22.36
		c-12.38-64.37-3.48-116.13-1.62-126.05c14.26-1.49,87.84-7.98,168.9,25.35C334.19,185.5,339.17,230.19,350.61,272.75z"/>
	<path class="st3" d="M537.71,503.34c-23.36,3.21-184.07,19.97-295.07-105.24c-43.96-49.58-64.78-104.15-73.92-151.79
		c48.85-6.37,109.14-4.08,172.51,22.36c3.18,1.33,6.3,2.69,9.38,4.08c3.19,11.88,6.88,23.58,11.06,34.97
		C372.67,337.62,432.99,501.76,537.71,503.34z"/>
	<path class="st1" d="M540.81,495.08c-1.05-11.52-2.2-32.93,0-60.15C543,462.16,541.85,483.58,540.81,495.08z"/>
	<path class="st0" d="M1025.76,280.07c-3.13,17.31-31.65,160.56-169.79,232.54c-154.86,80.67-305.06-2.39-315.16-8.21
		c0.07-0.31,0.16-0.66,0.26-1.07c0.78,0,1.55-0.03,2.32-0.07c0.01,0,0.01,0,0.02,0c21.44,3.04,183.73,20.99,295.55-105.16
		c43.97-49.58,64.78-104.15,73.93-151.79C972.97,254.12,1015.76,275,1025.76,280.07z"/>
	<path class="st1" d="M543.39,503.26c-0.77,0.04-1.54,0.07-2.32,0.07c0.13-0.49,0.27-1.06,0.43-1.68c0.06,0.52,0.11,0.97,0.16,1.35
		C542.05,503.06,542.64,503.15,543.39,503.26z"/>
	<path class="st2" d="M912.89,246.31c-48.85-6.37-109.14-4.08-172.51,22.36c-4.23,1.77-8.38,3.61-12.43,5.49
		c11.88-40.78,18.97-86.79,17.89-128.64c80.96-33.22,154.42-26.75,168.67-25.26C916.37,130.18,925.27,181.94,912.89,246.31z"/>
	<path class="st1" d="M540.81,495.08c-1.05-11.52-2.2-32.93,0-60.15C543,462.16,541.85,483.58,540.81,495.08z"/>
	<path class="st3" d="M912.89,246.31c-9.15,47.64-29.96,102.21-73.93,151.79C727.14,524.25,564.85,506.3,543.41,503.26
		c106.68-4.43,167.3-177.96,177.76-207.91c2.41-6.86,4.66-13.94,6.78-21.19c4.05-1.88,8.2-3.72,12.43-5.49
		C803.75,242.23,864.04,239.94,912.89,246.31z"/>
	<path class="st4" d="M540.12,501.65c-0.06,0.52-0.11,0.97-0.16,1.35c-0.48,0.08-1.24,0.19-2.25,0.34
		c-104.72-1.58-165.04-165.72-176.04-195.62c-4.18-11.39-7.87-23.09-11.06-34.97C492.06,336.96,533.46,475.92,540.12,501.65z"/>
	<path class="st4" d="M727.95,274.16c-2.12,7.25-4.37,14.33-6.78,21.19c-10.46,29.95-71.08,203.48-177.76,207.91
		c-0.01,0-0.01,0-0.02,0c-0.75-0.11-1.34-0.2-1.73-0.26c-0.05-0.38-0.1-0.83-0.16-1.35C548.09,476.11,588.94,338.98,727.95,274.16z"
		/>
	<path class="st5" d="M745.84,145.52c-33.94,13.93-69.21,34.83-101.97,66.02c-76.64,72.92-98.18,162.62-103.06,223.39
		c-4.89-60.76-26.43-150.45-103.07-223.39c-32.69-31.11-67.86-51.99-101.74-65.93c2.52-54.78,17.86-100.54,46.97-119.39
		c22.77-14.73,46.91-16.51,46.91-16.51C460.8,7.1,475.47,21.51,524.32,27c10.95,1.22,21.81,2.45,36.59,1.74
		c50.32-2.45,67.14-23.48,100.41-18.33c20.48,3.18,34.39,14.32,42.75,21.02C732.39,54.12,744.59,97.02,745.84,145.52z"/>
	<path class="st6" d="M540.81,495.08c-0.25,2.8-0.49,5-0.69,6.57c-6.66-25.73-48.06-164.69-189.51-228.9
		c-11.44-42.56-16.42-87.25-14.61-127.14c33.88,13.94,69.05,34.82,101.74,65.93c76.64,72.94,98.18,162.63,103.07,223.39
		C538.61,462.15,539.76,483.56,540.81,495.08z"/>
	<path class="st6" d="M727.95,274.16C588.94,338.98,548.09,476.11,541.5,501.65c-0.2-1.57-0.44-3.78-0.69-6.57
		c1.04-11.5,2.19-32.92,0-60.15c4.88-60.77,26.42-150.47,103.06-223.39c32.76-31.19,68.03-52.09,101.97-66.02
		C746.92,187.37,739.83,233.38,727.95,274.16z"/>
	<path class="st4" d="M540.81,495.08c-1.05-11.52-2.2-32.93,0-60.15C543,462.16,541.85,483.58,540.81,495.08z"/>
	<path class="st7" d="M543.39,503.26c-0.77,0.04-1.54,0.07-2.32,0.07c-0.17,0.01-0.35,0.01-0.52,0c-0.65,0.02-1.3,0.02-1.97,0.02
		c-0.29,0-0.59,0-0.87-0.01c1.01-0.15,1.77-0.26,2.25-0.34c0.05-0.38,0.1-0.83,0.16-1.35c0.2-1.57,0.44-3.77,0.69-6.57
		c0.25,2.79,0.49,5,0.69,6.57c0.06,0.52,0.11,0.97,0.16,1.35C542.05,503.06,542.64,503.15,543.39,503.26z"/>
	<text transform="matrix(1 0 0 1 -5.4018 743.5501)" class="st8 st9 st10">MONDENT</text>
	<text transform="matrix(1 0 0 1 177.582 858.8032)" class="st11 st9 st12">DENTAL PRACTICE</text>
</g>
</svg>
