<?xml version="1.0" encoding="utf-8"?>
<!-- Generator: Adobe Illustrator 27.2.0, SVG Export Plug-In . SVG Version: 6.00 Build 0)  -->
<svg version="1.1" xmlns="http://www.w3.org/2000/svg" xmlns:xlink="http://www.w3.org/1999/xlink" x="0px" y="0px"
	 viewBox="0 0 1280 1024" style="enable-background:new 0 0 1280 1024;" xml:space="preserve">
<style type="text/css">
	.st0{opacity:0.5;fill:#CAC4CE;}
	.st1{opacity:0.5;fill:#8D86C9;}
	.st2{opacity:0.75;fill:#725AC1;}
	.st3{opacity:0.8;fill:#725AC1;}
	.st4{opacity:0.51;fill:#242038;}
	.st5{font-family:'Futura-Medium';}
	.st6{font-size:211.2831px;}
	.st7{fill:#CAC4CE;}
	.st8{font-size:84.8096px;}
</style>
<g id="Layer_1">
</g>
<g id="Layer_2">
	<path class="st0" d="M620.16,575.64c-10.1,5.82-160.32,88.88-315.18,8.21c-138.14-71.99-166.65-215.23-169.79-232.54
		c10-5.07,52.79-25.96,112.87-33.77c48.86-6.37,109.14-4.08,172.52,22.36c3.18,1.33,6.3,2.69,9.37,4.08
		c3.19,11.88,6.88,23.58,11.06,34.97c11,29.9,71.32,194.04,176.03,195.62c1.01-0.15,1.78-0.26,2.25-0.34
		c0.05-0.38,0.1-0.83,0.16-1.35c0.16,0.63,0.3,1.19,0.43,1.68C620,574.98,620.08,575.33,620.16,575.64z"/>
	<path class="st1" d="M620.16,566.32c-0.25,2.8-0.49,5.01-0.69,6.57c-6.66-25.73-48.06-164.68-189.51-228.9
		c3.19,11.88,6.88,23.58,11.06,34.97c11,29.9,71.32,194.04,176.03,195.62c-23.35,3.22-184.07,19.97-295.06-105.24
		c-43.96-49.58-64.78-104.15-73.93-151.79c-12.38-64.36-3.48-116.13-1.61-126.05c14.25-1.49,87.84-7.97,168.9,25.36
		c33.88,13.94,69.04,34.82,101.73,65.93c76.64,72.94,98.18,162.63,103.07,223.39C622.35,533.4,621.2,554.82,620.16,566.32z"/>
	<path class="st0" d="M1105.11,351.31c-3.13,17.31-31.65,160.55-169.79,232.54c-154.86,80.67-305.06-2.39-315.16-8.21
		c0.08-0.31,0.16-0.66,0.26-1.08c0.13-0.49,0.26-1.05,0.43-1.68c0.06,0.53,0.11,0.98,0.16,1.35c0.39,0.06,0.98,0.15,1.73,0.26
		c0.01,0,0.01,0,0.02,0c106.68-4.43,167.3-177.96,177.76-207.91c2.4-6.86,4.66-13.94,6.77-21.19c4.05-1.89,8.21-3.73,12.44-5.49
		c63.36-26.44,123.66-28.73,172.51-22.36C1052.32,325.36,1095.11,346.24,1105.11,351.31z"/>
	<path class="st1" d="M992.24,317.55c-9.15,47.64-29.96,102.21-73.93,151.79C806.49,595.49,644.2,577.54,622.76,574.5
		c106.68-4.43,167.3-177.96,177.76-207.91c2.4-6.86,4.66-13.94,6.77-21.19c-139,64.81-179.85,201.94-186.45,227.48
		c-0.2-1.56-0.44-3.78-0.69-6.57c-1.05-11.51-2.2-32.93,0-60.15c4.88-60.77,26.42-150.47,103.06-223.39
		c32.76-31.19,68.03-52.09,101.97-66.02c80.96-33.23,154.42-26.76,168.66-25.27C995.72,201.42,1004.62,253.18,992.24,317.55z"/>
	<path class="st2" d="M619.47,572.89c-0.06,0.53-0.11,0.98-0.16,1.35c-0.48,0.08-1.24,0.19-2.25,0.34
		C512.34,573,452.02,408.86,441.02,378.96c-4.18-11.39-7.87-23.09-11.06-34.97C571.41,408.2,612.81,547.16,619.47,572.89z"/>
	<path class="st2" d="M807.3,345.4c-2.11,7.25-4.37,14.33-6.77,21.19c-10.46,29.95-71.08,203.48-177.76,207.91
		c-0.01,0-0.01,0-0.02,0c-0.75-0.11-1.34-0.2-1.73-0.26c-0.05-0.38-0.1-0.83-0.16-1.35C627.44,547.35,668.29,410.22,807.3,345.4z"/>
	<path class="st3" d="M807.3,345.4c-139,64.81-179.85,201.94-186.45,227.48c0.06,0.53,0.11,0.98,0.16,1.35
		c0.39,0.06,0.98,0.15,1.73,0.26c-0.76,0.04-1.54,0.06-2.32,0.06c-0.18,0.01-0.35,0.01-0.53,0c-0.65,0.02-1.3,0.02-1.96,0.02
		c-0.29,0-0.59,0-0.88-0.01c1.01-0.15,1.78-0.26,2.25-0.34c0.05-0.38,0.1-0.83,0.16-1.35c-6.66-25.73-48.06-164.68-189.51-228.9
		c-11.44-42.56-16.42-87.25-14.6-127.14c2.52-54.78,17.86-100.54,46.97-119.39c22.76-14.73,46.91-16.51,46.91-16.51
		c30.92-2.62,45.59,11.8,94.44,17.28c10.95,1.23,21.81,2.45,36.59,1.74c50.32-2.44,67.14-23.48,100.41-18.32
		c20.49,3.18,34.39,14.32,42.75,21.01c28.32,22.69,40.52,65.59,41.77,114.1C826.27,258.61,819.18,304.62,807.3,345.4z"/>
	<text transform="matrix(1 0 0 1 84.4032 825.3998)" class="st4 st5 st6">MONDENT</text>
	<text transform="matrix(1 0 0 1 267.7576 923.2388)" class="st7 st5 st8">DENTAL PRACTICE</text>
</g>
</svg>
