<?xml version="1.0" encoding="utf-8"?>
<!-- Generator: Adobe Illustrator 27.2.0, SVG Export Plug-In . SVG Version: 6.00 Build 0)  -->
<svg version="1.1" xmlns="http://www.w3.org/2000/svg" xmlns:xlink="http://www.w3.org/1999/xlink" x="0px" y="0px"
	 viewBox="0 0 1131.7 875.42" style="enable-background:new 0 0 1131.7 875.42;" xml:space="preserve">
<style type="text/css">
	.st0{opacity:0.5;}
	.st1{fill:#CAC4CE;}
	.st2{fill:#FFFFFF;}
	.st3{fill:#8D86C9;}
	.st4{opacity:0.75;}
	.st5{fill:#725AC1;}
	.st6{opacity:0.8;}
	.st7{opacity:0.51;fill:#242038;stroke:#FFFFFF;stroke-width:5;stroke-miterlimit:10;}
	.st8{font-family:'Futura-Medium';}
	.st9{font-size:211.2831px;}
	.st10{fill:#CAC4CE;stroke:#FFFFFF;stroke-width:5;stroke-miterlimit:10;}
	.st11{font-size:84.8096px;}
</style>
<g id="Layer_1">
</g>
<g id="Layer_2">
	<g>
		<g>
			<g class="st0">
				<path class="st1" d="M373.58,552.06c-51.41,0-100.29-11.89-145.29-35.33C169.85,486.28,123.9,439.91,91.71,378.9
					c-24.06-45.59-32.5-85.38-34.52-96.49l-0.33-1.83l1.66-0.84c15.35-7.78,57.15-26.67,113.68-34.01c15.27-1.99,30.67-3,45.78-3
					c44.34,0,87.41,8.59,128.02,25.54c3,1.25,6.09,2.6,9.44,4.11l1.08,0.49l0.31,1.14c3.19,11.88,6.89,23.57,11,34.75
					c5.78,15.71,23.3,63.32,52.68,108.01c37.01,56.3,77.67,85.23,120.84,85.97l0.16-0.02l1.5-12.6l3.34,12.81l0.43,1.69l0.71,2.93
					l-1.62,0.93C538.12,512.93,467.5,552.06,373.58,552.06z"/>
				<path class="st2" d="M217.98,245.23c38.83,0,82.16,6.61,127.06,25.34c3.18,1.33,6.29,2.69,9.37,4.08
					c3.19,11.88,6.88,23.58,11.06,34.97c11,29.9,71.32,194.04,176.03,195.62c1.01-0.15,1.78-0.26,2.25-0.34
					c0.05-0.38,0.1-0.83,0.16-1.35c0.16,0.63,0.3,1.19,0.43,1.68c0.1,0.41,0.19,0.76,0.26,1.08c-6.83,3.94-77.85,43.25-171.04,43.25
					c-44.51,0-94.08-8.97-144.14-35.04C91.3,442.52,62.79,299.28,59.65,281.97c10-5.07,52.79-25.96,112.87-33.77
					C186.77,246.35,202,245.23,217.98,245.23 M217.98,240.23c-15.22,0-30.73,1.02-46.11,3.02c-56.91,7.4-99.02,26.43-114.49,34.26
					l-3.32,1.69l0.67,3.67c2.03,11.2,10.55,51.3,34.77,97.21c14.36,27.22,31.83,51.97,51.91,73.58
					c24.69,26.55,53.53,48.52,85.72,65.3c45.36,23.63,94.63,35.61,146.45,35.61c39.59,0,79.8-6.87,119.52-20.42
					c30.86-10.53,50.41-21.43,54.02-23.5l3.24-1.87l-0.87-3.63l-0.14-0.57l-0.13-0.52l-0.01-0.03l-0.01-0.03l-0.15-0.61
					c-0.08-0.34-0.18-0.7-0.28-1.08l-6.67-25.66l-2.8,23.55c-22.16-0.87-43.94-9.57-64.79-25.87
					c-17.99-14.07-35.46-33.89-51.91-58.91c-29.22-44.45-46.67-91.86-52.4-107.44l-0.02-0.06c-4.08-11.11-7.75-22.73-10.93-34.54
					l-0.61-2.29l-2.16-0.97c-3.38-1.52-6.49-2.88-9.5-4.14C306.05,248.88,262.65,240.23,217.98,240.23L217.98,240.23z"/>
			</g>
			<g class="st0">
				<path class="st3" d="M541.68,504.83l0.18,2.88c-5.56,0.77-20.78,2.55-41.95,2.55c-59.4,0-171.56-14.11-255.33-108.6
					c-38.23-43.11-63.3-94.58-74.51-152.98c-11.96-62.17-4.26-112.91-1.62-126.98l0.34-1.83l1.85-0.19
					c9.45-0.99,20.24-1.51,31.2-1.51c33.37,0,84.56,4.69,138.91,27.04c38.24,15.74,72.73,38.09,102.51,66.43
					c76.73,73.02,98.82,162.66,103.84,225c2.13,26.47,1.17,47.55,0,60.57c-0.23,2.61-0.47,4.92-0.7,6.66l-1.65,12.87L541.68,504.83z
					 M358.26,279.19c2.85,10.09,6.06,20.02,9.57,29.57c5.78,15.71,23.3,63.32,52.68,108.01c36.95,56.21,77.53,85.13,120.62,85.96
					C533.23,473.11,491.52,342.36,358.26,279.19z"/>
				<path class="st2" d="M201.85,120.66c31.96,0,83.26,4.36,137.96,26.85c33.88,13.94,69.04,34.82,101.73,65.93
					c76.64,72.94,98.18,162.63,103.07,223.39c2.19,27.23,1.04,48.65,0,60.15c-0.25,2.8-0.49,5.01-0.69,6.57
					c-6.66-25.73-48.06-164.68-189.51-228.9c3.19,11.88,6.88,23.58,11.06,34.97c11,29.9,71.32,194.04,176.03,195.62
					c-5.96,0.82-20.87,2.52-41.61,2.52c-60.54,0-170.79-14.5-253.46-107.76c-43.96-49.58-64.78-104.15-73.93-151.79
					c-12.38-64.36-3.48-116.13-1.61-126.05C175.54,121.67,186.45,120.66,201.85,120.66 M201.85,115.66L201.85,115.66
					c-11.04,0-21.92,0.53-31.46,1.52l-3.71,0.39l-0.69,3.66c-2.66,14.18-10.42,65.31,1.62,127.92
					c11.3,58.84,36.56,110.71,75.09,154.17c37,41.74,83.16,72.12,137.18,90.28c47.13,15.84,91.28,19.17,120.02,19.17
					c19.5,0,34-1.5,40.63-2.35l5.05,19.52l3.3-25.75c0.23-1.78,0.47-4.12,0.71-6.76c1.18-13.11,2.15-34.34,0-60.99
					c-5.06-62.78-27.31-153.05-104.61-226.61c-30.01-28.56-64.75-51.08-103.28-66.93C286.98,120.38,235.44,115.66,201.85,115.66
					L201.85,115.66z M537.81,500.1c-21.65-1.19-42.93-9.86-63.31-25.8c-17.99-14.07-35.46-33.89-51.91-58.91
					c-29.22-44.45-46.67-91.86-52.4-107.44l-0.02-0.06c-2.86-7.79-5.52-15.83-7.95-24C486.21,345.31,528.15,465.86,537.81,500.1
					L537.81,500.1z"/>
			</g>
			<g class="st0">
				<path class="st1" d="M715.64,552.06c-93.92,0-164.53-39.13-172.28-43.59l-1.62-0.93l0.7-2.9l0.44-1.72l3.33-12.84l1.49,12.56
					c43.79-2.05,84.98-33.4,122.35-93.19c19.67-31.48,37.36-69.51,52.56-113.02c2.31-6.6,4.58-13.69,6.73-21.06l0.32-1.09l1.03-0.48
					c4.16-1.94,8.38-3.8,12.53-5.53c40.6-16.94,83.67-25.54,128.01-25.54c15.11,0,30.51,1.01,45.78,3
					c56.53,7.35,98.33,26.23,113.68,34.01l1.66,0.84l-0.33,1.83c-2,11.09-10.42,50.83-34.51,96.49
					c-32.19,61-78.14,107.37-136.58,137.82C815.93,540.17,767.05,552.06,715.64,552.06z"/>
				<path class="st2" d="M871.24,245.23c15.99,0,31.21,1.12,45.46,2.98c60.08,7.81,102.87,28.7,112.87,33.77
					c-3.13,17.31-31.65,160.55-169.79,232.54c-50.05,26.07-99.63,35.04-144.13,35.04c-93.2,0-164.19-39.32-171.03-43.25
					c0.08-0.31,0.16-0.66,0.26-1.08c0.13-0.49,0.26-1.05,0.43-1.68c0.06,0.53,0.11,0.98,0.16,1.35c0.39,0.06,0.98,0.15,1.73,0.26
					c0.01,0,0.01,0,0.02,0c106.68-4.43,167.3-177.96,177.76-207.91c2.4-6.86,4.66-13.94,6.77-21.19c4.05-1.89,8.21-3.73,12.44-5.49
					C789.07,251.84,832.42,245.23,871.24,245.23 M871.24,240.23L871.24,240.23c-44.68,0-88.07,8.66-128.98,25.73
					c-4.18,1.74-8.43,3.62-12.63,5.58l-2.05,0.96l-0.63,2.17c-2.14,7.32-4.39,14.37-6.69,20.94
					c-15.14,43.35-32.75,81.21-52.32,112.53c-16.64,26.62-34.34,47.83-52.61,63.05c-21.03,17.51-43.02,27.19-65.41,28.82
					l-2.78-23.36l-6.67,25.65c-0.1,0.39-0.19,0.75-0.28,1.09l-0.15,0.61l-0.01,0.03l-0.01,0.03l-0.13,0.53l-0.14,0.56l-0.87,3.63
					l3.24,1.87c3.61,2.08,23.17,12.98,54.01,23.5c39.71,13.55,79.92,20.42,119.52,20.42c51.81,0,101.09-11.98,146.44-35.61
					c32.19-16.77,61.03-38.74,85.72-65.3c20.09-21.61,37.55-46.36,51.92-73.58c24.26-45.98,32.74-86.03,34.76-97.21l0.66-3.67
					l-3.32-1.68c-15.46-7.84-57.57-26.87-114.49-34.26C901.97,241.24,886.46,240.23,871.24,240.23L871.24,240.23z"/>
			</g>
			<g class="st0">
				<path class="st3" d="M542.82,503.86c-0.22-1.72-0.46-4.03-0.7-6.66c-0.97-10.63-2.26-32.64,0-60.57
					c5.01-62.34,27.08-151.98,103.83-225c29.84-28.41,64.41-50.79,102.75-66.52c54.28-22.28,105.37-26.95,138.68-26.95
					c10.96,0,21.75,0.52,31.19,1.51l1.85,0.19l0.34,1.83c2.64,14.07,10.34,64.81-1.62,126.98c-11.21,58.4-36.28,109.87-74.51,152.98
					c-83.76,94.5-195.91,108.6-255.3,108.6c-21.63,0-36.91-1.84-42.48-2.62l0.01-0.18l-2.4,9.3L542.82,503.86z M727.74,280.74
					c-130.67,63.69-171.75,192.4-179.61,221.87c43.69-2.27,84.7-33.61,121.93-93.17c19.67-31.48,37.36-69.51,52.56-113.02
					C724.37,291.45,726.08,286.19,727.74,280.74z"/>
				<path class="st2" d="M887.38,120.66c15.4,0,26.3,1.01,30.93,1.5c1.86,9.92,10.76,61.69-1.61,126.05
					c-9.15,47.64-29.96,102.21-73.93,151.79c-82.65,93.24-192.89,107.76-253.43,107.76c-21.37,0-36.53-1.81-42.13-2.6
					c106.68-4.43,167.3-177.96,177.76-207.91c2.4-6.86,4.66-13.94,6.77-21.19C592.75,340.88,551.9,478,545.3,503.55
					c-0.2-1.56-0.44-3.78-0.69-6.57c-1.05-11.51-2.2-32.93,0-60.15c4.88-60.77,26.42-150.47,103.06-223.39
					c32.76-31.19,68.03-52.09,101.97-66.02C804.26,125.01,855.46,120.66,887.38,120.66 M887.38,115.66v5V115.66
					c-33.54,0-84.98,4.71-139.63,27.14c-38.62,15.85-73.45,38.4-103.52,67.02c-77.32,73.57-99.56,163.84-104.6,226.61
					c-2.27,28.11-0.97,50.29,0,61c0.24,2.66,0.48,5,0.71,6.75l3.3,25.79l5.05-19.56c6.87,0.88,21.23,2.36,40.65,2.36
					c28.73,0,72.88-3.33,120.02-19.18c54.01-18.16,100.16-48.53,137.15-90.27c38.53-43.45,63.8-95.32,75.09-154.17
					c12.04-62.61,4.28-113.74,1.62-127.92l-0.69-3.66l-3.71-0.39C909.3,116.19,898.42,115.66,887.38,115.66L887.38,115.66z
					 M551.48,499.87c9.66-34.14,50.96-152.45,172.13-214.27c-1.1,3.43-2.22,6.77-3.35,10c-15.14,43.35-32.75,81.21-52.32,112.53
					c-16.64,26.62-34.34,47.83-52.61,63.05C594.79,488.28,573.33,497.92,551.48,499.87L551.48,499.87z"/>
			</g>
			<g class="st4">
				<path class="st5" d="M541.47,507.74c-45-0.68-87.11-30.36-125.15-88.22c-29.7-45.17-47.37-93.19-53.17-108.97
					c-4.18-11.39-7.92-23.22-11.15-35.24l-1.37-5.11l4.82,2.19c141.54,64.25,183.86,203.32,190.9,230.55l0.12,0.46
					c0,0-0.19,1.58-0.22,1.85l-0.25,1.85l-1.84,0.29c-0.41,0.06-2.48,0.37-2.48,0.37L541.47,507.74z"/>
				<path class="st2" d="M354.41,274.65c141.46,64.21,182.86,203.17,189.51,228.9c-0.06,0.53-0.11,0.98-0.16,1.35
					c-0.48,0.08-1.24,0.19-2.25,0.34c-104.71-1.58-165.03-165.72-176.03-195.62C361.3,298.23,357.61,286.53,354.41,274.65
					 M346.84,265.72l2.75,10.23c3.25,12.09,7.02,24,11.2,35.39l0.02,0.07c5.83,15.85,23.57,64.07,53.43,109.48
					c17.05,25.94,35.25,46.56,54.1,61.3c23.33,18.24,47.92,27.67,73.09,28.05l0.41,0.01l0.4-0.06l0.25-0.04
					c0.91-0.13,1.6-0.24,2.05-0.31l3.68-0.58l0.49-3.7c0.04-0.29,0.08-0.61,0.12-0.98l0.05-0.44l0.11-0.93l-0.24-0.91
					c-3.98-15.36-16.3-56-44.81-101.42c-16.57-26.4-36.01-50.16-57.76-70.63c-26.48-24.91-56.67-45.15-89.71-60.15L346.84,265.72
					L346.84,265.72z"/>
			</g>
			<g class="st4">
				<path class="st5" d="M547.01,507.66l-0.18-0.03c-0.77-0.11-1.36-0.2-1.75-0.27l-1.83-0.29l-0.25-1.84
					c-0.04-0.28-0.17-1.39-0.17-1.39l-0.06-0.47l0.12-0.45c6.94-26.87,48.6-164.21,187.81-229.12l5-2.33l-1.55,5.3
					c-2.18,7.46-4.47,14.63-6.81,21.31c-15.32,43.86-33.17,82.23-53.04,114.02c-38.44,61.51-81.16,93.66-126.98,95.56l-0.05,0
					H547.01z"/>
				<path class="st2" d="M731.75,276.06c-2.11,7.25-4.37,14.33-6.77,21.19c-10.46,29.95-71.08,203.48-177.76,207.91
					c-0.01,0-0.01,0-0.02,0c-0.75-0.11-1.34-0.2-1.73-0.26c-0.05-0.38-0.1-0.83-0.16-1.35C551.9,478,592.75,340.88,731.75,276.06
					 M739.64,266.87l-10.01,4.67c-32.47,15.14-62.14,35.4-88.18,60.21c-21.4,20.38-40.51,43.98-56.82,70.15
					c-28.11,45.09-40.25,85.24-44.17,100.41l-0.23,0.91l0.11,0.93l0.05,0.44c0.04,0.37,0.08,0.7,0.12,0.98l0.49,3.68l3.67,0.59
					c0.36,0.06,0.89,0.14,1.56,0.24l0.22,0.03l0.37,0.06h0.37h0.1l0.13,0c25.64-1.06,50.64-11.59,74.3-31.3
					c19.09-15.9,37.49-37.91,54.69-65.43c19.97-31.95,37.9-70.48,53.28-114.53c2.36-6.73,4.66-13.95,6.85-21.44L739.64,266.87
					L739.64,266.87z"/>
			</g>
			<g class="st6">
				<path class="st5" d="M542.39,507.75c-0.32,0-0.66,0-0.99-0.01l-0.25-4.93c-7.94-29.83-50.52-163.58-187.77-225.88l-1.07-0.49
					L352,275.3c-11.31-42.08-16.53-87.51-14.69-127.9c2.75-59.97,19.84-103.07,48.11-121.38c23.04-14.91,47.07-16.83,48.08-16.9
					c2.51-0.21,5.03-0.32,7.48-0.32c13.32,0,24.21,3.18,36.81,6.87c13.18,3.85,28.11,8.22,50.61,10.75l0.13,0.01
					c8.82,0.99,17.14,1.92,27.56,1.92c2.78,0,5.65-0.07,8.5-0.21c24.05-1.17,40.28-6.62,54.59-11.43c12.29-4.13,22.91-7.7,35.63-7.7
					c3.55,0,7.05,0.27,10.69,0.84c21.14,3.28,35.41,14.7,43.93,21.53c33.53,26.86,41.73,77.9,42.71,115.99
					c1.03,40.1-5.36,86.06-18,129.4l-0.32,1.09l-1.03,0.48C596.4,341.94,555.02,476.18,547.84,503.72c0.04,0.32,0.07,0.6,0.1,0.85
					l-0.5,0.07l-0.13,3.02c-0.78,0.04-1.57,0.06-2.36,0.07c-0.11,0.01-0.23,0.01-0.34,0.01c-0.1,0-0.19,0-0.29-0.01
					C543.68,507.75,543.04,507.75,542.39,507.75z"/>
				<path class="st2" d="M440.98,11.3c26.26,0,42.29,12.56,87.14,17.6c8.71,0.98,17.36,1.95,27.97,1.95c2.73,0,5.6-0.06,8.62-0.21
					c44.86-2.18,63.1-19.13,90.1-19.13c3.29,0,6.7,0.25,10.31,0.81c20.49,3.18,34.39,14.32,42.75,21.01
					c28.32,22.69,40.52,65.59,41.77,114.1c1.08,41.85-6.01,87.85-17.9,128.64C592.75,340.88,551.9,478,545.3,503.55
					c0.06,0.53,0.11,0.98,0.16,1.35c0.39,0.06,0.98,0.15,1.73,0.26c-0.76,0.04-1.54,0.06-2.32,0.06c-0.09,0.01-0.18,0.01-0.26,0.01
					c-0.09,0-0.18,0-0.26-0.01c-0.65,0.02-1.3,0.02-1.96,0.02c-0.29,0-0.59,0-0.88-0.01c1.01-0.15,1.78-0.26,2.25-0.34
					c0.05-0.38,0.1-0.83,0.16-1.35c-6.66-25.73-48.06-164.68-189.51-228.9c-11.44-42.56-16.42-87.25-14.6-127.14
					c2.52-54.78,17.86-100.54,46.97-119.39c22.76-14.73,46.91-16.51,46.91-16.51C436.21,11.4,438.64,11.3,440.98,11.3 M440.98,6.3
					c-2.51,0-5.1,0.11-7.69,0.33c-1.39,0.11-25.84,2.16-49.23,17.29c-14.98,9.7-26.9,26.07-35.42,48.66
					c-7.86,20.82-12.51,45.96-13.83,74.71c-1.85,40.65,3.4,86.34,14.77,128.67l0.61,2.28l2.15,0.98
					c136.94,62.16,178.94,196.02,186.5,224.7c-0.01,0.12-0.03,0.23-0.04,0.34l0.14,0.02c0.05,0.19,0.1,0.37,0.14,0.54l1.34-0.35
					l0.57,0.08l0.3,5.7c0.36,0.02,0.73,0.02,1.09,0.02c0.62,0,1.26,0,1.93-0.02c0.1,0,0.2,0.01,0.3,0.01c0.14,0,0.27,0,0.41-0.01
					c0.74,0,1.54-0.03,2.42-0.07l0.28-5.56l1.09-0.15l1.34,0.34c0.05-0.18,0.09-0.36,0.14-0.54l0.14-0.02
					c-0.01-0.11-0.03-0.22-0.04-0.34c7.46-28.33,48.82-160.51,183.48-223.3l2.05-0.96l0.63-2.17
					c12.71-43.59,19.13-89.82,18.09-130.17C753.22,91.91,738.12,51.15,711,29.42c-8.72-6.99-23.31-18.67-45.11-22.05
					c-3.78-0.59-7.4-0.87-11.07-0.87c-13.13,0-23.93,3.63-36.43,7.83c-14.16,4.76-30.21,10.16-53.92,11.31
					c-2.82,0.14-5.64,0.21-8.38,0.21c-10.28,0-18.54-0.93-27.28-1.9l-0.13-0.01c-22.28-2.5-37.1-6.84-50.19-10.66
					C465.7,9.53,454.66,6.3,440.98,6.3L440.98,6.3z"/>
			</g>
		</g>
		<text transform="matrix(1 0 0 1 -1.5956 745.4532)" class="st7 st8 st9">MONDENT</text>
		<text transform="matrix(1 0 0 1 181.3882 860.7062)" class="st10 st8 st11">DENTAL PRACTICE</text>
	</g>
</g>
</svg>
